<?xml version="1.0" encoding="utf-8"?>

<!DOCTYPE svg PUBLIC "-//W3C//DTD SVG 1.1//EN" "http://www.w3.org/Graphics/SVG/1.1/DTD/svg11.dtd">
<svg version="1.1" id="Layer_1" xmlns="http://www.w3.org/2000/svg" xmlns:xlink="http://www.w3.org/1999/xlink" x="0px" y="0px"
	 viewBox="0 0 2560 1638.839" enable-background="new 0 0 2560 1638.839" xml:space="preserve">
<path d="M222.953,84.132C384.357,3.394,567.638,145.069,533.008,319.81c-7.269,37.667-24.755,73.316-50.158,102.062
	c-4.749,5.26,12.521,20.362,19.909,29.441c3.146,3.531,3.719,8.471,6.639,12.114c6.334-10.719,15.208-9.025,24.933-7.87
	c4.273-0.301,6.949,3.606,9.71,6.254c4.527,4.22,1.221,17.841-1.089,21.083c-6.288,9.454,4.857,11.463,8.771,21.102
	c2.705,6.367,5.484,13.044,5.212,20.106c0,3.465,1.211,6.846,0.92,10.34c-1.243,14.109-9.365,20.41-4.761,45.969
	c-0.329,6.273-0.075,12.556,0.216,18.829c0.563,0.554,1.136,1.108,1.709,1.681c0.31,7.287,0.038,14.537-0.122,21.825
	c2.31,4.029,2.019,8.696,2.874,13.138c-1.336,9.86-0.063-3.61-0.019,18.82c-1.897,6.395,0.16,13.194-1.831,19.59
	c2.151,4.836,6.762,8.33,8.086,13.617c1.075,2.717,7.543,40.397,16.096,53.341c4.752,3.362,6.47,9.344,7.165,14.857
	c0.952,8.777-17.025,16.525-19.909,18.942c-4.987,3.982-10.33,8.217-16.754,9.382c4.232,3.614,66.441,49.714,67.381,50.402
	c372.649,255.845,849.489,486.783,1909.06,586.931c10.959,1.221,22.022,1.737,32.953,3.249v213.825H0V157.373
	c0,0,65.465,116.281,108.739,172.542C84.844,233.731,130.82,129.983,222.953,84.132 M468.003,437.123
	c4.564,3.437,7.888,8.217,11.992,12.058c-2.601-5.315-5.39-10.537-7.973-15.861C470.708,434.615,469.374,435.883,468.003,437.123
	 M428.232,466.658c-58.469,33.812-129.428,40.724-208.378,4.94c39.604,48.173,149.125,159.587,167.903,174.42
	c9.081-1.862,8.065,1.842,12.208,2.911c6.569,1.935,24.964,11.767,28.727-22.501c1.916-4.113,0.592-8.846,2.536-12.903
	c4.456-12.124-3.808-41.365,16.613-43.931c0.94-0.075,27.27-1.095,31.113,1.071c6.865,0.554,13.758-0.685,20.632-1.052
	c9.556-0.549,6.996-43.843,7.485-49.172c-1.052-1.23-0.883-2.78-0.573-4.226c0.385-0.254,1.155-0.742,1.549-0.995
	c-0.817-0.789-1.164-1.775-1.042-2.958c-1.841-2.075-3.184-4.545-5.466-6.217c-0.657-0.845-1.531,0.244-2.188,0.479
	c1.343-2.141-1.39-2.958-2.367-4.301c-0.498-1.831-2.075-3.08-2.874-4.761c-0.413-4.733-4.038-8.367-6.208-12.424
	c-0.873-1.981-3.371-2.216-4.451-3.972c-1.211-1.878-2.686-3.522-4.301-5.043c-8.367-8.987-14.331-19.796-20.782-30.155
	C448.77,453.416,438.872,460.619,428.232,466.658 M458.387,600.161c-1.275,29.639-20.978,43.632-24.351,57.173
	c0.254,2.733,0.733,6.076-1.625,8.095c-3.334,3.174-4.526,7.748-7.231,11.363c-0.902,0.92-1.146,2.676,0.038,3.503
	c32.572,29.906,74.075,63.889,109.537,91.45c2.273-0.131,2.536-4.038,5.071-4.104c3.456-0.977,7.701,1.052,10.471-1.916
	c4.151-4.245,0.235-10.988,3.428-15.692c1.69-1.803,4.357-3.324,3.897-6.226c0.491-11.366-23.038-35.354-24.858-50.89
	c-2.01-6.968-2.864-14.171-3.794-21.336c-0.291-0.488-0.873-1.474-1.164-1.963c-4.526,0.826-8.715-1.437-13.241-0.855
	c-1.221-4.076,0.836-8.217,1.23-12.274c1.531-5.193,0.188-10.668,0.892-15.946c0.657-1.474,0.902-3.071,0.629-4.648
	c-2.46-0.535-2.348-3.531-2.892-5.437c-0.704-1.587-1.596-3.09-1.878-4.818c-1.596-2.733-5.306-2.085-7.644-3.653
	c-5.062-2.188-10.837-3.569-14.875-7.626c-6.78-3.559-14.81-3.108-22.247-3.785c-3.07-3.343-0.854-11.014-3.043-12.988
	C462.753,598.705,459.251,597.625,458.387,600.161z"/>
</svg>
